<svg width="80" height="80" viewBox="0 0 80 80" fill="none" xmlns="http://www.w3.org/2000/svg">
<path fill-rule="evenodd" clip-rule="evenodd" d="M77.271 30.4271C76.88 30.2981 76.5768 30.0194 76.4361 29.6568C76.369 29.4865 76.3019 29.3187 76.2284 29.1523C76.0761 28.8013 76.0942 28.3897 76.2774 28.0258C77.0529 26.4929 76.7574 24.6477 75.5432 23.431L74.6335 22.5213C73.4206 21.3058 71.5729 21.0077 70.04 21.7871C69.6774 21.9716 69.2645 21.9897 68.911 21.8348C68.7458 21.7626 68.5781 21.6955 68.4064 21.6284C68.0464 21.4877 67.7664 21.1832 67.6374 20.7935C67.1019 19.1613 65.5871 18.0645 63.8684 18.0645H62.5832C60.8645 18.0645 59.3497 19.1626 58.8142 20.7935C58.6852 21.1845 58.4065 21.4877 58.0439 21.6284C57.8735 21.6955 57.7058 21.7626 57.5394 21.8361C57.1884 21.9858 56.7768 21.9703 56.4129 21.7871C54.88 21.0129 53.0335 21.3084 51.8181 22.5213L51.1161 23.2258H43.871V3.87097C43.871 1.73677 42.1342 0 40 0H3.87097C1.73677 0 0 1.73677 0 3.87097V29.6774C0 31.8116 1.73677 33.5484 3.87097 33.5484H7.74194V65.8064C7.74194 69.3639 10.6361 72.2581 14.1935 72.2581H29.6774V77.4193H21.9355V80H55.4839V77.4193H47.7419V72.2581H63.2258C66.7832 72.2581 69.6774 69.3639 69.6774 65.8064V47.7935C69.7023 47.7986 69.7273 47.8031 69.7523 47.8077C69.8492 47.8253 69.9461 47.8429 70.0374 47.889C71.5703 48.6632 73.4168 48.3677 74.6323 47.1548L75.5432 46.2452C76.7561 45.0297 77.0516 43.1832 76.2761 41.6516C76.0916 41.2864 76.0748 40.8748 76.2284 40.5226C76.3006 40.3574 76.3677 40.1897 76.4348 40.0181C76.5755 39.6581 76.88 39.3781 77.2697 39.249C78.9032 38.7148 80 37.2 80 35.4813V34.1961C80 32.4774 78.9019 30.9626 77.271 30.4271ZM49.1806 39.2503C49.5716 39.3794 49.8748 39.6581 50.0155 40.0206C50.0826 40.191 50.1497 40.3587 50.2232 40.5252C50.3755 40.8761 50.3574 41.2877 50.1742 41.6516C49.3987 43.1845 49.6942 45.0297 50.9084 46.2464L51.8181 47.1574C53.031 48.3703 54.8774 48.6658 56.4116 47.8903C56.7755 47.7084 57.1884 47.689 57.5406 47.8426C57.7058 47.9148 57.8735 47.9819 58.0452 48.049C58.4052 48.1897 58.6852 48.4942 58.8142 48.8839C59.2813 50.3084 60.4929 51.3226 61.9355 51.56V59.3548H15.4839V33.5484H40C41.68 33.5484 43.0994 32.4658 43.6335 30.9677H48.1187C47.0916 31.6968 46.4516 32.8852 46.4516 34.1961V35.4813C46.4516 37.2 47.5497 38.7148 49.1806 39.2503ZM49.7806 25.8064C49.6994 26.5523 49.8194 27.3213 50.1755 28.0258C50.2216 28.118 50.2392 28.2151 50.2568 28.3119L50.2642 28.3524L50.271 28.3871H43.871V25.8064H49.7806ZM3.87097 2.58065H40C40.7123 2.58065 41.2903 3.15871 41.2903 3.87097V10.3226H2.58065V3.87097C2.58065 3.15871 3.15871 2.58065 3.87097 2.58065ZM2.58065 29.6774V12.9032H41.2903V29.6774C41.2903 30.3897 40.7123 30.9677 40 30.9677H3.87097C3.15871 30.9677 2.58065 30.3897 2.58065 29.6774ZM32.2581 77.4193V72.2581H45.1613V77.4193H32.2581ZM63.2258 69.6774H38.7097C40.8439 69.6774 42.5806 67.9406 42.5806 65.8064C42.5806 63.6723 40.8439 61.9355 38.7097 61.9355H61.9355C63.3587 61.9355 64.5161 60.7781 64.5161 59.3548V51.5587C65.5652 51.3858 66.489 50.8 67.0968 49.9458V65.8064C67.0968 67.9406 65.36 69.6774 63.2258 69.6774ZM38.7097 61.9355H15.4839C14.0606 61.9355 12.9032 60.7781 12.9032 59.3548V33.5484H10.3226V65.8064C10.3226 67.9406 12.0594 69.6774 14.1935 69.6774H38.7097C36.5755 69.6774 34.8387 67.9406 34.8387 65.8064C34.8387 63.6723 36.5755 61.9355 38.7097 61.9355ZM77.4193 35.4813C77.4193 36.0826 77.0361 36.6116 76.4645 36.7987C75.3393 37.169 74.4516 38.0026 74.031 39.0839C73.9768 39.2232 73.9187 39.3613 73.8606 39.4968C73.4013 40.5535 73.4426 41.7639 73.9729 42.8155C74.2439 43.351 74.1406 43.9961 73.7174 44.4206L72.8077 45.329C72.3845 45.7548 71.7393 45.8568 71.2013 45.5858C70.1523 45.0555 68.9406 45.0142 67.8852 45.4723C67.7484 45.5316 67.6103 45.5897 67.4723 45.6439C66.3897 46.0645 65.5574 46.9535 65.1871 48.08C64.9987 48.649 64.4697 49.0323 63.8684 49.0323H62.5832C61.9819 49.0323 61.4529 48.649 61.2658 48.0774C60.8955 46.9523 60.0619 46.0645 58.9806 45.6439C58.8413 45.5897 58.7032 45.5316 58.5677 45.4735C58.08 45.2619 57.56 45.1561 57.0374 45.1561C56.4271 45.1561 55.8155 45.2994 55.2477 45.5858C54.7135 45.8568 54.0684 45.7535 53.6426 45.3303L52.7342 44.4206C52.3097 43.9961 52.2064 43.351 52.4774 42.8142C53.0077 41.7639 53.049 40.5535 52.591 39.4981C52.5316 39.3613 52.4735 39.2232 52.4194 39.0852C51.9987 38.0026 51.1097 37.1703 49.9832 36.8C49.4155 36.6116 49.0323 36.0826 49.0323 35.4813V34.1961C49.0323 33.5948 49.4155 33.0658 49.9871 32.8787C51.1123 32.5084 52 31.6748 52.4206 30.5935C52.4748 30.4542 52.5329 30.3161 52.591 30.1806C53.0503 29.1239 53.009 27.9135 52.4787 26.8619C52.2077 26.3265 52.311 25.6813 52.7342 25.2568L53.6439 24.3471C54.0684 23.9239 54.7148 23.8219 55.2503 24.0916C56.3006 24.6219 57.5123 24.6645 58.5664 24.2052C58.7032 24.1458 58.8413 24.0877 58.9794 24.0335C60.0619 23.6129 60.8942 22.7239 61.2645 21.5974C61.4529 21.0284 61.9819 20.6452 62.5832 20.6452H63.8684C64.4697 20.6452 64.9987 21.0284 65.1858 21.6C65.5561 22.7252 66.3897 23.6129 67.471 24.0335C67.6103 24.0877 67.7484 24.1458 67.8839 24.2039C68.9419 24.6632 70.151 24.6219 71.2026 24.0916C71.7393 23.8194 72.3845 23.9252 72.8077 24.3471L73.7161 25.2568C74.1406 25.6813 74.2439 26.3265 73.9729 26.8632C73.4426 27.9135 73.4013 29.1239 73.8594 30.1794C73.9187 30.3161 73.9768 30.4542 74.031 30.5923C74.4516 31.6748 75.3406 32.5071 76.4671 32.8774C77.0361 33.0658 77.4193 33.5948 77.4193 34.1961V35.4813ZM54.1936 34.8387C54.1936 29.8594 58.2465 25.8065 63.2258 25.8065C68.2052 25.8065 72.2581 29.8594 72.2581 34.8387C72.2581 39.8181 68.2052 43.871 63.2258 43.871C58.2465 43.871 54.1936 39.8181 54.1936 34.8387ZM56.7742 34.8387C56.7742 38.3961 59.6684 41.2903 63.2258 41.2903C66.7832 41.2903 69.6774 38.3961 69.6774 34.8387C69.6774 31.2813 66.7832 28.3871 63.2258 28.3871C59.6684 28.3871 56.7742 31.2813 56.7742 34.8387ZM59.3548 34.8387C59.3548 32.7045 61.0916 30.9677 63.2258 30.9677C65.36 30.9677 67.0968 32.7045 67.0968 34.8387C67.0968 36.9729 65.36 38.7097 63.2258 38.7097C61.0916 38.7097 59.3548 36.9729 59.3548 34.8387ZM61.9355 34.8387C61.9355 35.551 62.5135 36.129 63.2258 36.129C63.9381 36.129 64.5161 35.551 64.5161 34.8387C64.5161 34.1264 63.9381 33.5484 63.2258 33.5484C62.5135 33.5484 61.9355 34.1264 61.9355 34.8387ZM18.0645 5.16129H15.4839V7.74194H18.0645V5.16129ZM5.16129 5.16129H7.74194V7.74194H5.16129V5.16129ZM12.9032 5.16129H10.3226V7.74194H12.9032V5.16129ZM38.7097 67.0968C37.9974 67.0968 37.4194 66.5187 37.4194 65.8064C37.4194 65.0942 37.9974 64.5161 38.7097 64.5161C39.4219 64.5161 40 65.0942 40 65.8064C40 66.5187 39.4219 67.0968 38.7097 67.0968ZM43.871 36.129H18.0645V38.7097H43.871V36.129ZM18.0645 41.2903H43.871V43.871H18.0645V41.2903ZM21.4013 51.6129L17.1523 47.3639L18.9768 45.5394L25.0503 51.6129L18.9768 57.6865L17.1523 55.8619L21.4013 51.6129ZM25.8065 54.1936H36.129V56.7742H25.8065V54.1936ZM10.3226 18.0645V15.4839H5.16129V18.0645H10.3226ZM12.9032 15.4839H25.8065V18.0645H12.9032V15.4839ZM38.7097 28.3871H28.3871V15.4839H38.7097V28.3871ZM36.129 18.0645H30.9677V25.8064H36.129V18.0645ZM5.16129 20.6452H25.8064V23.2258H5.16129V20.6452ZM25.8064 25.8065H20.6452V28.3871H25.8064V25.8065ZM15.4839 25.8065H18.0645V28.3871H15.4839V25.8065ZM12.9032 25.8065H5.16129V28.3871H12.9032V25.8065Z" fill="#F2FEFB"/>
</svg>
