<svg width="24" height="24" viewBox="0 0 24 24" fill="none" xmlns="http://www.w3.org/2000/svg">
<path fill-rule="evenodd" clip-rule="evenodd" d="M19.3743 8.86842C20.5211 7.7183 20.5202 5.77733 19.3714 4.62854C18.2273 3.48441 16.2974 3.47882 15.1455 4.61176C15.1401 4.61752 15.1346 4.62322 15.129 4.62885L12.7871 6.9711C12.6405 7.11697 12.4481 7.19047 12.2565 7.19047C12.0645 7.19047 11.8729 7.11735 11.7263 6.9711C11.4334 6.67822 11.4334 6.20347 11.7263 5.91022L14.0681 3.56797C14.0704 3.56575 14.0726 3.56355 14.0748 3.56136C15.8007 1.84304 18.7095 1.84527 20.4323 3.56804C22.1573 5.29304 22.1573 8.20717 20.4323 9.93217C20.4256 9.93877 20.4189 9.94523 20.4121 9.95154L16.2628 14.1009C16.2563 14.1079 16.2496 14.1148 16.2427 14.1217C15.3652 14.9988 14.2129 15.4376 13.0609 15.4376C11.9085 15.4376 10.7561 14.9988 9.879 14.1217C9.58613 13.8288 9.58613 13.3541 9.879 13.0612C10.1715 12.7683 10.647 12.7683 10.9395 13.0612C12.1031 14.2247 13.9925 14.2311 15.164 13.0793C15.1698 13.0731 15.1758 13.0669 15.1819 13.0608L19.3714 8.87129C19.3723 8.87033 19.3733 8.86937 19.3743 8.86842ZM13.0609 10.9393C13.2071 11.086 13.3991 11.1591 13.5911 11.1591C13.7828 11.1591 13.9751 11.086 14.1214 10.9393C14.4143 10.6465 14.4143 10.1717 14.1214 9.87883C12.3671 8.1242 9.51226 8.12383 7.75764 9.87883L7.74952 9.88707L3.58332 14.0529L3.56813 14.0677C1.84313 15.7927 1.84313 18.7068 3.56813 20.4318C4.43026 21.2943 5.59013 21.7256 6.75001 21.7256C7.90236 21.7256 9.0547 21.2999 9.91506 20.4482C9.92073 20.4428 9.92634 20.4374 9.93188 20.4318L12.2738 18.0899C12.5666 17.7971 12.5666 17.3223 12.2738 17.0294C11.9813 16.7366 11.5058 16.7366 11.2133 17.0294L8.88651 19.3562L8.87138 19.3709C7.72163 20.5207 5.77838 20.5207 4.62863 19.3709C3.4831 18.2254 3.4789 16.2922 4.61602 15.1409L4.62863 15.1286L8.81813 10.9395L8.82545 10.932C9.99605 9.76934 11.8937 9.77214 13.0609 10.9393Z" fill="#7BDBC4"/>
</svg>
