<svg width="200" height="230" viewBox="0 0 87 57" fill="none" xmlns="http://www.w3.org/2000/svg">
<path fill-rule="evenodd" clip-rule="evenodd" d="M84.9757 51.6759C83.8391 54.3624 82.1104 55.7683 80.0992 56.374C78.1814 56.8761 75.9156 56.5829 73.4857 55.6327C69.3469 53.9338 64.5269 50.3021 59.7736 45.8733C56.2752 42.4907 49.8323 40.8596 43.5 40.8596C37.1677 40.8596 30.7247 42.4907 27.2264 45.8733C22.4717 50.3034 17.6502 53.9359 13.5106 55.6342L13.5106 55.6341L13.501 55.6383C11.0951 56.6844 8.82854 56.8799 6.89762 56.3732C4.79596 55.7711 3.16543 54.2698 2.02143 51.7774C0.873047 49.0587 0.331114 45.1367 0.546331 39.6464C0.761459 34.7006 1.6224 29.2081 2.9158 24.0345L2.91582 24.0345L2.91701 24.0295C4.10049 19.0805 5.81953 14.4652 7.74424 10.9357C11.4694 4.3381 15.2967 1.64121 19.3225 0.835087C23.4032 0.0179562 27.7792 1.11449 32.703 2.35919L32.8253 1.87534L32.703 2.35919L32.8663 2.40049L32.8663 2.40051L32.8715 2.40177C33.1509 2.46921 33.432 2.53751 33.7153 2.60632L33.7165 2.60662L33.7174 2.60684L33.7178 2.60693L33.7334 2.61073C36.62 3.31206 39.7174 4.06462 42.9115 4.36407L42.9348 4.36625H42.9582H44.0418H44.0652L44.0885 4.36407C47.2826 4.06462 50.38 3.31207 53.2665 2.61075L53.2822 2.60693L53.2826 2.60685L53.2832 2.6067C53.5669 2.53776 53.8486 2.46933 54.1285 2.40177L54.1285 2.40188L54.1386 2.3992C59.0962 1.09172 63.5034 -0.0327674 67.6098 0.767521C71.6616 1.55717 75.5107 4.24836 79.2561 10.828C81.1778 14.3524 82.79 18.9657 84.0849 23.929C85.3778 29.1014 86.2384 34.5923 86.4536 39.537C86.6693 45.1447 86.125 49.0637 84.9785 51.6693L84.9757 51.6759ZM79.2827 53.5451L79.2828 53.5452L79.2948 53.5416C80.5672 53.1599 81.5254 52.1513 82.2114 50.5506C83.2312 48.171 83.6611 44.7214 83.4434 39.7124L83.4433 39.7114C83.2248 34.9029 82.3514 29.669 81.1545 24.6639L81.1533 24.6589C79.9555 19.8676 78.4252 15.5949 76.5531 12.2906C73.5495 6.88485 70.2471 4.53191 66.5882 3.85189C63.0082 3.18653 59.1663 4.14751 55.1502 5.15206L55.0804 5.16951L54.8651 5.22333L54.8615 5.22427C51.5079 6.08971 48.0835 6.94477 44.2377 7.26729H44.0418H42.8498H42.6546C38.9171 6.94481 35.4933 6.09 32.1396 5.22455C28.0495 4.1482 24.1433 3.13407 20.5057 3.79419C16.8096 4.4649 13.4765 6.83818 10.4469 12.2906C8.57421 15.596 7.04434 19.9774 5.84766 24.6551C4.53834 29.6745 3.77495 35.0184 3.5567 39.7109L3.55663 39.7124C3.339 44.7178 3.76812 48.1677 4.67895 50.3309L4.68021 50.3339C5.36376 51.9288 6.31757 52.9359 7.5831 53.3207C8.95977 53.8148 10.6291 53.421 12.3589 52.7723L12.3619 52.7712C16.1444 51.3249 20.6483 47.7964 25.0927 43.6772C29.1915 39.894 36.308 37.8502 43.5 37.8502C50.6951 37.8502 57.7995 39.8952 61.7847 43.8804L61.7846 43.8805L61.7939 43.8893C66.1416 48.0196 70.6401 51.4321 74.5226 52.9851L74.5226 52.9852L74.5327 52.989C76.3057 53.6539 77.9419 53.9107 79.2827 53.5451ZM29.237 29.1832C29.1393 30.551 28.4556 31.7518 27.5242 32.7894C26.5241 33.7846 25.022 34.4826 23.4282 34.4826C21.8232 34.4826 20.4272 33.8845 19.323 32.7803L19.3137 32.771L19.3039 32.7622C18.3209 31.8774 17.7198 30.5882 17.6194 29.1832L17.5884 28.7489L17.154 28.7199C15.6525 28.6199 14.459 28.025 13.4505 27.0165C12.4505 26.0165 11.7482 24.5101 11.7482 22.9113C11.7482 21.3064 12.3463 19.9104 13.4505 18.8061L13.5498 18.7068C14.5677 17.7938 15.7679 17.2017 17.1563 17.1026L17.5886 17.0717L17.6194 16.6395C17.7183 15.2555 18.4152 13.9502 19.323 13.0424C20.3231 12.0423 21.8295 11.3401 23.4282 11.3401C25.0332 11.3401 26.4292 11.9382 27.5334 13.0424L27.6422 13.1511C28.5358 14.0448 29.1375 15.3465 29.2372 16.6422L29.2702 17.0719L29.7001 17.1026C31.0679 17.2003 32.2687 17.884 33.3063 18.8154C34.3015 19.8154 34.9995 21.3175 34.9995 22.9113C34.9995 24.5163 34.4014 25.9123 33.2971 27.0165L33.2879 27.0258L33.2791 27.0356C32.3943 28.0187 31.1051 28.6198 29.7001 28.7201L29.2678 28.751L29.237 29.1832ZM25.5682 15.2163L25.5469 15.1879L25.5218 15.1628L25.413 15.054C24.8781 14.5191 24.2044 14.2551 23.4282 14.2551C22.652 14.2551 21.9783 14.5191 21.4434 15.054C20.9085 15.5889 20.6445 16.2627 20.6445 17.0388V18.5613C20.6445 19.4645 19.9069 20.1276 19.0782 20.1276H17.5557C16.8828 20.1276 16.2364 20.394 15.7332 20.7713L15.7048 20.7927L15.6796 20.8178L15.5709 20.9265C15.036 21.4614 14.772 22.1352 14.772 22.9113C14.772 23.7301 15.1777 24.3942 15.5709 24.7874C16.1058 25.3223 16.7795 25.5863 17.5557 25.5863H19.0782C19.9813 25.5863 20.6445 26.3239 20.6445 27.1526V28.6751C20.6445 29.4513 20.9085 30.125 21.4434 30.6599C21.9783 31.1948 22.652 31.4588 23.4282 31.4588C24.2044 31.4588 24.8781 31.1948 25.413 30.6599C25.9479 30.125 26.212 29.4513 26.212 28.6751V27.2613C26.212 26.3582 26.9495 25.6951 27.7782 25.6951H29.3007C30.0769 25.6951 30.7506 25.431 31.2855 24.8961C31.8204 24.3612 32.0845 23.6875 32.0845 22.9113C32.0845 22.1352 31.8204 21.4614 31.2855 20.9265C30.7506 20.3916 30.0769 20.1276 29.3007 20.1276H27.7782C26.8751 20.1276 26.212 19.39 26.212 18.5613V17.0388C26.212 16.366 25.9456 15.7195 25.5682 15.2163ZM65.8844 15.1901C65.8844 17.0161 64.4042 18.4963 62.5782 18.4963C60.7522 18.4963 59.2719 17.0161 59.2719 15.1901C59.2719 13.3641 60.7522 11.8838 62.5782 11.8838C64.4042 11.8838 65.8844 13.3641 65.8844 15.1901ZM65.8844 30.6326C65.8844 32.4586 64.4042 33.9388 62.5782 33.9388C60.7522 33.9388 59.2719 32.4586 59.2719 30.6326C59.2719 28.8066 60.7522 27.3263 62.5782 27.3263C64.4042 27.3263 65.8844 28.8066 65.8844 30.6326ZM58.1632 22.9113C58.1632 24.7373 56.6829 26.2176 54.8569 26.2176C53.0309 26.2176 51.5507 24.7373 51.5507 22.9113C51.5507 21.0854 53.0309 19.6051 54.8569 19.6051C56.6829 19.6051 58.1632 21.0854 58.1632 22.9113ZM73.6057 22.9113C73.6057 24.7373 72.1254 26.2176 70.2994 26.2176C68.4734 26.2176 66.9932 24.7373 66.9932 22.9113C66.9932 21.0854 68.4734 19.6051 70.2994 19.6051C72.1254 19.6051 73.6057 21.0854 73.6057 22.9113Z" fill="#F2FEFB"/>
</svg>
