<svg width="85" height="100" viewBox="0 0 85 72" fill="none" xmlns="http://www.w3.org/2000/svg">
<path fill-rule="evenodd" clip-rule="evenodd" d="M14.4284 33.9866C14.4486 34.0038 14.4687 34.021 14.4888 34.0383C14.4992 34.0473 14.5095 34.0563 14.5199 34.0653C14.4896 34.0389 14.4591 34.0127 14.4284 33.9866ZM75.346 32.5292L75.6588 32.8082L76.077 32.7808C76.265 32.7686 76.4469 32.7611 76.6258 32.7611H83.4512C84.3067 32.7611 85 33.4544 85 34.3099V47.9601C85 48.8156 84.3067 49.5089 83.4512 49.5089H83.27H82.27V50.5089V69.801C82.27 70.6561 81.5765 71.3498 80.7211 71.3498H4.27886C3.42349 71.3498 2.73003 70.6561 2.73003 69.801V50.5089V49.5089H1.73003H1.54883C0.693284 49.5089 0 48.8156 0 47.9601V34.3099C0 33.4544 0.693284 32.7611 1.54883 32.7611H8.37424C8.55308 32.7611 8.7342 32.7685 8.92234 32.7808L9.34065 32.8082L9.65341 32.5291C11.5799 30.8098 13.7748 29.488 16.1392 28.6044L17.7554 28.0003L16.4278 26.8982C13.063 24.105 10.9201 19.8973 10.9201 15.199C10.9201 6.81915 17.7398 0 26.1198 0C34.4997 0 41.3188 6.8191 41.3188 15.199C41.3188 19.2257 39.7452 22.8906 37.1778 25.6144L35.5887 27.3003H37.9055H49.8252H52.142L50.5529 25.6144C47.9855 22.8906 46.4112 19.2255 46.4112 15.199C46.4112 6.81913 53.2303 0 61.6109 0C69.9908 0 76.8099 6.8191 76.8099 15.199C76.8099 20.3091 74.2749 24.8402 70.3895 27.5998L69.0057 28.5826L70.536 29.3167C72.2647 30.1459 73.8822 31.2231 75.346 32.5292ZM80.9023 46.4112H81.9023V45.4112V36.8587V35.8587H80.9023H76.6258C73.716 35.8587 71.3492 38.2245 71.3492 41.1347C71.3492 44.0454 73.7159 46.4112 76.6258 46.4112H80.9023ZM4.09766 35.8587H3.09766V36.8587V45.4112V46.4112H4.09766H8.37424C11.284 46.4112 13.6508 44.0455 13.6508 41.1353C13.6508 38.2246 11.2841 35.8587 8.37424 35.8587H4.09766ZM6.82769 49.5089H5.82769V50.5089V67.2515V68.2515H6.82769H12.6502H13.6502V67.2515V56.1502C13.6502 55.2953 14.3441 54.6013 15.199 54.6013C16.0544 54.6013 16.7478 55.2951 16.7478 56.1502V67.2522V68.2522H17.7478H39.9512H40.9512V67.2522V47.9601C40.9512 41.6314 43.8121 35.958 48.3139 32.1632L50.4072 30.3987H47.6693H23.3898C20.0981 30.3987 16.9398 31.2994 14.201 32.9866H11.7034L13.7815 34.7493C15.5968 36.2889 16.7485 38.5802 16.7485 41.1347C16.7485 45.7517 12.9907 49.5089 8.37424 49.5089H6.82769ZM78.1723 68.2515H79.1723V67.2515V50.5089V49.5089H78.1723H76.6264C72.0093 49.5089 68.2522 45.7517 68.2522 41.1353C68.2522 38.5907 69.3932 36.309 71.1954 34.7687L72.2176 33.8951L71.0868 33.1676C68.2835 31.364 65.019 30.3987 61.6109 30.3987C51.926 30.3987 44.0488 38.2758 44.0488 47.9601V67.2515V68.2515H45.0488H67.2515H68.2515V67.2515V56.1502C68.2515 55.2953 68.9455 54.6013 69.8003 54.6013C70.6557 54.6013 71.3492 55.2951 71.3492 56.1502V67.2515V68.2515H72.3492H78.1723ZM61.6102 3.09766C54.9368 3.09766 49.5089 8.52554 49.5089 15.199C49.5089 21.8732 54.9369 27.3003 61.6109 27.3003C68.2843 27.3003 73.7122 21.8732 73.7122 15.199C73.7122 8.52547 68.2836 3.09766 61.6102 3.09766ZM38.2211 15.199C38.2211 8.52554 32.7933 3.09766 26.1198 3.09766C19.4457 3.09766 14.0178 8.5255 14.0178 15.199C14.0178 21.8732 19.4458 27.3003 26.1198 27.3003C32.7933 27.3003 38.2211 21.8725 38.2211 15.199Z" fill="#F2FEFB"/>
</svg>
