<svg width="87" height="80" viewBox="0 0 87 80" fill="none" xmlns="http://www.w3.org/2000/svg">
<path fill-rule="evenodd" clip-rule="evenodd" d="M51.6365 14.1815C56.9286 3.03229 68.5775 -2.75182 77.6038 1.28738C81.32 2.95062 84.1112 6.01065 85.6787 10.1379C87.8173 15.7742 87.343 22.5896 84.3776 28.8363C80.2295 37.5744 72.1754 43.0179 64.541 43.0179C63.6387 43.0186 62.7381 42.9404 61.8501 42.7842L58.8432 49.1187L75.2714 48.0869C76.5248 47.9967 77.7699 48.3476 78.7796 49.0757L82.488 51.7466C82.7157 51.9105 82.8989 52.1258 83.022 52.374C83.145 52.6222 83.2041 52.8957 83.1942 53.1711C83.1843 53.4464 83.1057 53.7153 82.9651 53.9545C82.8245 54.1937 82.6263 54.396 82.3874 54.5441L77.3557 57.6633L81.9396 62.0186C82.1511 62.2093 82.3108 62.448 82.4043 62.7134C82.4978 62.9788 82.5222 63.2626 82.4754 63.5394C82.4286 63.8162 82.3121 64.0775 82.1361 64.2998C81.9602 64.5221 81.7304 64.6985 81.4672 64.8133C81.4601 64.8164 81.453 64.8196 81.4457 64.8224L75.0211 67.463L78.4554 72.1989C78.6174 72.4224 78.7216 72.6806 78.759 72.9516C78.7964 73.2226 78.7661 73.4984 78.6704 73.7556C78.5748 74.0127 78.4168 74.2436 78.2097 74.4286C78.0027 74.6136 77.7528 74.7473 77.4813 74.8182L72.9579 76.0022C71.6587 76.3442 70.274 76.1864 69.0913 75.5615L67.929 74.9492C67.5715 75.5295 67.09 76.0285 66.5171 76.4123L63.7797 78.2432C62.7182 78.9516 61.4114 79.2221 60.1453 78.9956C58.8792 78.769 57.757 78.0639 57.0242 77.0344C56.8465 76.7838 56.7213 76.5017 56.6558 76.204C56.5903 75.9064 56.5858 75.5991 56.6426 75.2998C56.6993 75.0004 56.8161 74.7149 56.9864 74.4595C57.1567 74.2042 57.3771 73.984 57.635 73.8115L57.7717 73.7202L53.1012 67.1372L51.2263 66.1494L49.5449 65.8119C50.8378 66.5195 51.8961 67.5713 52.5957 68.8438C53.2953 70.1162 53.607 71.5564 53.4942 72.9951C53.3815 74.4339 52.8489 75.8114 51.9591 76.966C51.0694 78.1206 49.8593 79.0042 48.4711 79.513C47.083 80.0218 45.5743 80.1347 44.1225 79.8385C42.6706 79.5422 41.3358 78.8491 40.2749 77.8406C39.214 76.832 38.471 75.5499 38.1333 74.1449C37.7955 72.7398 37.8771 71.2702 38.3682 69.9087C38.2152 70.0664 38.0603 70.223 37.9016 70.3769C35.1977 73.0045 31.8423 74.9089 28.16 75.9056C24.4778 76.9023 20.5934 76.9577 16.8827 76.0664C13.172 75.1751 9.7606 73.3673 6.97864 70.8179C4.19668 68.2685 2.13832 65.0639 1.00274 61.514C-0.132847 57.9641 -0.307216 54.1892 0.496504 50.5546C1.30022 46.92 3.05482 43.5487 5.59052 40.7669C8.12622 37.9851 11.3572 35.887 14.9708 34.6756C18.5843 33.4643 22.4582 33.1806 26.2175 33.8521L12.8349 14.9908C12.3387 14.2913 11.9892 13.5036 11.8065 12.6726C11.6237 11.8416 11.6112 10.9837 11.7697 10.148C11.9283 9.31229 12.2547 8.51521 12.7303 7.80238C13.2059 7.08954 13.8214 6.47495 14.5415 5.99377C15.9967 5.02272 17.7881 4.65181 19.5238 4.96218C21.2594 5.27255 22.7981 6.23893 23.803 7.64992L46.6874 39.9028C47.5941 41.179 47.9827 42.7366 47.7783 44.2751C47.6398 45.3179 47.9033 46.3737 48.518 47.2386L49.2766 48.3081C49.7755 48.332 50.2715 48.3951 50.76 48.4969L51.2089 48.5902L55.3444 39.8782C53.1407 38.1466 51.4348 35.7776 50.3355 32.8799C48.1969 27.2436 48.6713 20.4281 51.6365 14.1815ZM46.5329 63.1963L49.3671 50.3437C46.9997 50.1689 44.8316 51.158 44.2907 52.745C44.3774 53.5252 44.421 54.3094 44.4213 55.0941C44.4238 57.3593 44.0605 59.6107 43.3446 61.7661C44.2217 62.842 45.5836 63.0951 46.5329 63.1963ZM41.2658 66.2012C42.2802 65.5096 43.4504 65.0647 44.6781 64.904C43.8969 64.6908 43.1674 64.3282 42.5322 63.8374C42.1611 64.6502 41.7381 65.4397 41.2658 66.2012ZM29.2347 36.751C28.0196 36.312 26.764 35.9876 25.4851 35.7821C25.1012 37.8134 25.1941 39.9029 25.7567 41.8944C26.3193 43.886 27.3372 45.7282 28.7343 47.2835L35.6717 40.5476C35.5241 40.4173 35.3767 40.2886 35.2261 40.1642C35.1172 40.0799 35.0268 39.9752 34.9603 39.8563C34.8938 39.7374 34.8524 39.6068 34.8387 39.4721C34.825 39.3374 34.8391 39.2014 34.8804 39.0721C34.9216 38.9428 34.9891 38.8229 35.0788 38.7194C35.1686 38.616 35.2787 38.5311 35.4028 38.4697C35.5268 38.4084 35.6622 38.3718 35.8011 38.3623C35.9399 38.3528 36.0792 38.3704 36.2109 38.4141C36.3426 38.4579 36.4639 38.5269 36.5677 38.6171C37.0256 38.9937 37.4702 39.3915 37.9016 39.8105C40.7965 42.6071 42.8377 46.1295 43.7984 49.9865C44.6873 49.2536 45.7484 48.7454 46.8876 48.5068L46.8033 48.3887C45.8966 47.1127 45.508 45.5552 45.7123 44.0168C45.8511 42.9739 45.5876 41.9181 44.9728 41.0531L22.0896 8.80002C21.3984 7.8299 20.3404 7.1655 19.1469 6.95212C17.9535 6.73875 16.7217 6.99376 15.721 7.66139C15.2264 7.99175 14.8036 8.41377 14.4769 8.90327C14.1501 9.39278 13.9259 9.94016 13.817 10.5141C13.708 11.088 13.7166 11.6772 13.8421 12.2479C13.9675 12.8186 14.2075 13.3596 14.5483 13.84L29.2951 34.6259C29.5203 34.6995 29.7448 34.7754 29.9679 34.8563C30.1131 34.9095 30.2442 34.9938 30.3517 35.1027C30.4591 35.2117 30.5401 35.3426 30.5888 35.486C30.6375 35.6294 30.6526 35.7815 30.633 35.9313C30.6134 36.081 30.5596 36.2247 30.4756 36.3516V36.3528C30.3466 36.547 30.1532 36.6924 29.9274 36.7649C29.7017 36.8373 29.4572 36.8324 29.2347 36.751ZM35.7677 51.6067C37.8209 52.1523 39.9741 52.2407 42.0673 51.8654C41.4412 48.1767 39.7325 44.7426 37.1468 41.9764L30.2078 48.7144C31.8141 50.0726 33.7145 51.0612 35.7677 51.6067ZM23.4134 35.5536C22.9968 35.5282 22.58 35.5155 22.163 35.5155C17.1744 35.5068 12.3601 37.2994 8.65272 40.546L22.163 53.6636L27.2571 48.7178C25.6376 46.9473 24.4506 44.8436 23.785 42.564C23.1193 40.2843 22.9923 37.8878 23.4134 35.5536ZM7.18009 41.9764C3.82644 45.5652 1.9743 50.2444 1.98778 55.0941C1.98778 55.4939 2.00149 55.8916 2.02595 56.2873C4.43481 55.8895 6.90443 56.0174 9.25627 56.6616C11.6081 57.3058 13.7834 58.4503 15.6249 60.0123L20.6904 55.0941L7.18009 41.9764ZM8.57276 58.5484C6.51348 58.0037 4.35426 57.9188 2.2565 58.3001V58.3006C2.87905 61.9976 4.589 65.44 7.17974 68.212L14.1484 61.4457C12.5381 60.0836 10.632 59.0932 8.57276 58.5484ZM8.65342 69.6417C11.5162 72.1517 15.0613 73.8071 18.8652 74.4102V74.4107C19.2558 72.3746 19.167 70.2788 18.6053 68.2809C18.0436 66.283 17.0237 64.4349 15.6223 62.8754L8.65342 69.6417ZM20.545 67.6182C21.2087 69.8999 21.3419 72.2968 20.935 74.6348V74.6356C23.6095 74.7978 26.2904 74.4398 28.8211 73.5824C31.3517 72.725 33.6811 71.3855 35.6733 69.6422L22.163 56.5247L17.0975 61.443C18.7036 63.227 19.8812 65.3364 20.545 67.6182ZM23.6376 55.0941L37.1475 68.2112V68.2117C40.5009 64.623 42.353 59.9441 42.3396 55.0946C42.3396 54.6873 42.3254 54.2825 42.3002 53.8797C41.3704 54.037 40.4285 54.1165 39.4847 54.1173C35.5223 54.1169 31.6974 52.7043 28.7334 50.1465L23.6376 55.0941ZM50.4723 75.5016C51.1 74.588 51.435 73.514 51.4351 72.4152C51.4336 70.942 50.8313 69.5295 49.7603 68.4877C48.6894 67.4459 47.2372 66.8599 45.7226 66.8583C44.5928 66.8583 43.4884 67.1842 42.549 67.7947C41.6096 68.4053 40.8775 69.2731 40.4452 70.2883C40.0128 71.3036 39.8997 72.4208 40.1201 73.4986C40.3406 74.5764 40.8846 75.5664 41.6835 76.3435C42.4824 77.1205 43.5002 77.6497 44.6083 77.8641C45.7164 78.0785 46.8649 77.9685 47.9087 77.548C48.9525 77.1274 49.8447 76.4153 50.4723 75.5016ZM48.5882 63.5306L50.7905 63.9884L53.6181 51.1626L51.4159 50.7046L48.5882 63.5306ZM61.2193 71.4143L57.1406 69.2653L59.487 72.5728L61.2193 71.4143ZM62.6002 76.5748L65.3376 74.744V74.7433C65.6391 74.5405 65.8962 74.2815 66.0942 73.9814L63.2745 72.4966L58.8146 75.4795C58.7821 75.5011 58.7543 75.5287 58.7328 75.5607C58.7113 75.5928 58.6965 75.6287 58.6894 75.6664C58.6822 75.704 58.6828 75.7427 58.6911 75.7801C58.6993 75.8175 58.7152 75.853 58.7376 75.8845C59.1569 76.4727 59.7986 76.8756 60.5224 77.005C61.2463 77.1343 61.9933 76.9797 62.6002 76.5748ZM72.4167 74.0474L76.477 72.9844L73.2034 68.472C72.9347 68.1006 72.5549 67.8186 72.1157 67.6645L53.5519 61.1175L52.7712 64.661L70.0826 73.7813C70.7964 74.1589 71.6324 74.2542 72.4167 74.0474ZM73.3108 65.9677L80.1547 63.1552L75.2473 58.4906C75.0585 58.5153 74.8682 58.5279 74.6777 58.5284L54.4396 57.0942L53.9932 59.119L73.3108 65.9677ZM77.5398 50.7038C76.9283 50.263 76.1741 50.0513 75.4152 50.1075L55.7078 51.3441L54.8805 55.096L74.5154 56.499C75.007 56.5334 75.4971 56.4133 75.9132 56.1563L80.8557 53.0921L77.5398 50.7038ZM54.9315 49.3644L56.4782 49.2672L59.8005 42.2687C59.327 42.113 58.8622 41.9333 58.408 41.7304C57.9532 41.5268 57.5094 41.3006 57.0785 41.0528L53.2946 49.024L54.9315 49.3644ZM59.2781 39.8908C67.2634 43.4642 77.674 38.1242 82.4861 27.9875C85.2214 22.2252 85.6725 15.9747 83.7243 10.8387C82.3539 7.22774 79.9367 4.56171 76.7333 3.12745C75.072 2.388 73.2651 2.00919 71.4381 2.01734C64.6097 2.01734 57.3236 7.02981 53.5255 15.0308C50.79 20.7931 50.3388 27.0436 52.2871 32.1796C53.6575 35.7906 56.0747 38.4566 59.2781 39.8908ZM55.2231 15.7862C59.4251 6.9348 68.5773 2.29945 75.6256 5.4538C78.4927 6.73738 80.6495 9.10677 81.8631 12.3058C83.5599 16.7779 83.1682 22.2177 80.7886 27.2302C77.4813 34.1973 71.1071 38.5524 65.1048 38.5524C63.4768 38.5595 61.8666 38.2218 60.3863 37.5626C57.5193 36.2797 55.3628 33.9103 54.1485 30.7106C52.4517 26.2384 52.8436 20.7987 55.2231 15.7862ZM79.1335 11.3532C78.3238 9.88298 77.1298 8.64652 75.6719 7.76852L74.5527 10.1278L78.8105 12.0332L79.1335 11.3532ZM62.5697 19.6626L60.9622 23.0488L65.2206 24.9545L66.828 21.5683L62.5697 19.6626ZM62.7405 30.1789L64.348 26.7929L60.0895 24.8871L58.4821 28.2732L62.7405 30.1789ZM65.0499 14.4382L63.4422 17.8244L67.7004 19.7307L69.3082 16.3439L65.0499 14.4382ZM72.9777 24.3197L68.7192 22.414L67.1118 25.8002L71.3703 27.7059L72.9777 24.3197ZM71.1994 17.1887L69.592 20.5748L73.8503 22.4806L75.4579 19.0944L71.1994 17.1887ZM73.6794 11.967L72.072 15.3525L76.3305 17.2588L77.9379 13.8727L73.6794 11.967ZM70.8675 6.48005C70.1473 6.48259 69.4291 6.55574 68.7239 6.6984L68.4024 7.37604L72.6618 9.28192L73.7802 6.92349C72.8395 6.62692 71.8564 6.47725 70.8675 6.48005ZM71.788 11.1201L67.5295 9.21442L65.9224 12.6006L70.1811 14.5063L71.788 11.1201ZM65.639 8.36804L64.9768 8.07174C63.702 8.76718 62.5254 9.62069 61.4766 10.6109L64.0315 11.7542L65.639 8.36804ZM63.1586 13.5926L59.9889 12.1741C59.1627 13.1484 58.4324 14.196 57.8074 15.3031L61.5512 16.9785L63.1586 13.5926ZM60.6784 18.8177L56.8904 17.1217C56.3777 18.2723 55.9735 19.4658 55.6827 20.6875L59.071 22.2039L60.6784 18.8177ZM55.3135 22.7501C55.1442 24.1145 55.146 25.4938 55.3187 26.8578L56.591 27.4273L58.1984 24.0411L55.3135 22.7501ZM56.8755 31.6585C57.6846 33.1292 58.878 34.3665 60.3355 35.2455L61.868 32.0179L57.6096 30.1122L56.8755 31.6585ZM62.2265 36.0921C63.8617 36.5959 65.6038 36.6753 67.2802 36.3226L68.0173 34.7697L63.759 32.864L62.2265 36.0921ZM64.6316 31.0259L68.8901 32.931L70.4975 29.5454L66.2392 27.6397L64.6316 31.0259ZM70.7811 33.7773L72.0522 34.3462V34.3468C73.23 33.5858 74.3102 32.6906 75.2698 31.6805L72.3886 30.3911L70.7811 33.7773ZM73.2613 28.5538L76.6493 30.0694L76.6502 30.07C77.4196 29.0635 78.0928 27.9906 78.6613 26.8647L74.8688 25.1676L73.2613 28.5538ZM75.7405 23.3287L79.4912 25.0073L79.4921 25.0076C79.9541 23.8282 80.3017 22.6093 80.5303 21.3668L77.3481 19.9425L75.7405 23.3287ZM78.2206 18.1038L80.7895 19.2534L80.7903 19.2542C80.8845 17.8353 80.7857 16.4105 80.4965 15.0168L79.8281 14.7178L78.2206 18.1038ZM14.7147 10.6686C14.9241 10.7094 15.1089 10.8311 15.229 11.0073L21.0019 19.6797C21.0627 19.7682 21.1053 19.8679 21.1272 19.973C21.1491 20.0781 21.1499 20.1865 21.1296 20.2919C21.1092 20.3973 21.0681 20.4976 21.0086 20.587C20.9492 20.6764 20.8725 20.753 20.7832 20.8125C20.6938 20.872 20.5935 20.9131 20.4881 20.9335C20.3827 20.9539 20.2743 20.9531 20.1692 20.9312C20.0641 20.9093 19.9644 20.8668 19.8759 20.806C19.7874 20.7452 19.7118 20.6675 19.6537 20.5773L13.8807 11.905C13.7645 11.7262 13.7235 11.5088 13.7666 11.2999C13.8097 11.091 13.9334 10.9076 14.1109 10.7894C14.2884 10.6712 14.5054 10.6278 14.7147 10.6686Z" fill="#F2FEFB"/>
</svg>
